<svg width="1080" height="1080" viewBox="0 0 1080 1080" fill="none" xmlns="http://www.w3.org/2000/svg">
<rect x="106" y="375" width="360" height="20" fill="#120136"/>
<rect x="106" y="495" width="360" height="20" fill="#120136"/>
<rect x="106" y="615" width="360" height="20" fill="#120136"/>
<rect x="106" y="735" width="360" height="20" fill="#120136"/>
<rect x="86.5" y="275.5" width="399" height="99" rx="19.5" fill="#035AA6" stroke="#120136"/>
<circle cx="121" cy="325" r="15" fill="#40BAD5"/>
<circle cx="161" cy="325" r="15" fill="#40BAD5"/>
<rect x="436" y="310" width="30" height="30" rx="2" fill="#FCBF1E"/>
<rect x="396" y="310" width="30" height="30" rx="2" fill="#FCBF1E"/>
<rect x="191" y="315" width="190" height="5" rx="2.5" fill="#120136"/>
<rect x="191" y="330" width="190" height="5" rx="2.5" fill="#120136"/>
<rect x="86.5" y="395.5" width="399" height="99" rx="19.5" fill="#035AA6" stroke="#120136"/>
<circle cx="121" cy="445" r="15" fill="#40BAD5"/>
<circle cx="161" cy="445" r="15" fill="#40BAD5"/>
<rect x="436" y="430" width="30" height="30" rx="2" fill="#FCBF1E"/>
<rect x="396" y="430" width="30" height="30" rx="2" fill="#FCBF1E"/>
<rect x="191" y="435" width="190" height="5" rx="2.5" fill="#120136"/>
<rect x="191" y="450" width="190" height="5" rx="2.5" fill="#120136"/>
<rect x="86.5" y="515.5" width="399" height="99" rx="19.5" fill="#035AA6" stroke="#120136"/>
<circle cx="121" cy="565" r="15" fill="#40BAD5"/>
<circle cx="161" cy="565" r="15" fill="#40BAD5"/>
<rect x="436" y="550" width="30" height="30" rx="2" fill="#FCBF1E"/>
<rect x="396" y="550" width="30" height="30" rx="2" fill="#FCBF1E"/>
<rect x="191" y="555" width="190" height="5" rx="2.5" fill="#120136"/>
<rect x="191" y="570" width="190" height="5" rx="2.5" fill="#120136"/>
<rect x="86.5" y="635.5" width="399" height="99" rx="19.5" fill="#035AA6" stroke="#120136"/>
<circle cx="121" cy="685" r="15" fill="#40BAD5"/>
<circle cx="161" cy="685" r="15" fill="#40BAD5"/>
<rect x="436" y="670" width="30" height="30" rx="2" fill="#FCBF1E"/>
<rect x="396" y="670" width="30" height="30" rx="2" fill="#FCBF1E"/>
<rect x="191" y="675" width="190" height="5" rx="2.5" fill="#120136"/>
<rect x="191" y="690" width="190" height="5" rx="2.5" fill="#120136"/>
<rect x="86.5" y="755.5" width="399" height="99" rx="19.5" fill="#035AA6" stroke="#120136"/>
<circle cx="121" cy="805" r="15" fill="#40BAD5"/>
<circle cx="161" cy="805" r="15" fill="#40BAD5"/>
<rect x="436" y="790" width="30" height="30" rx="2" fill="#FCBF1E"/>
<rect x="396" y="790" width="30" height="30" rx="2" fill="#FCBF1E"/>
<rect x="191" y="795" width="190" height="5" rx="2.5" fill="#120136"/>
<rect x="191" y="810" width="190" height="5" rx="2.5" fill="#120136"/>
<rect x="614" y="375" width="360" height="20" fill="#120136"/>
<rect x="614" y="495" width="360" height="20" fill="#120136"/>
<rect x="614" y="615" width="360" height="20" fill="#120136"/>
<rect x="614" y="735" width="360" height="20" fill="#120136"/>
<rect x="594.5" y="275.5" width="399" height="99" rx="19.5" fill="#035AA6" stroke="#120136"/>
<circle cx="629" cy="325" r="15" fill="#FCBF1E"/>
<circle cx="669" cy="325" r="15" fill="#FCBF1E"/>
<rect x="944.5" y="310.5" width="29" height="29" rx="1.5" stroke="#120136"/>
<rect x="904.5" y="310.5" width="29" height="29" rx="1.5" stroke="#120136"/>
<rect x="699" y="315" width="190" height="5" rx="2.5" fill="#120136"/>
<rect x="699" y="330" width="190" height="5" rx="2.5" fill="#120136"/>
<rect x="594.5" y="395.5" width="399" height="99" rx="19.5" fill="#035AA6" stroke="#120136"/>
<circle cx="629" cy="445" r="15" fill="#FCBF1E"/>
<circle cx="669" cy="445" r="15" fill="#FCBF1E"/>
<rect x="944.5" y="430.5" width="29" height="29" rx="1.5" stroke="#120136"/>
<rect x="904.5" y="430.5" width="29" height="29" rx="1.5" stroke="#120136"/>
<rect x="699" y="435" width="190" height="5" rx="2.5" fill="#120136"/>
<rect x="699" y="450" width="190" height="5" rx="2.5" fill="#120136"/>
<rect x="594.5" y="515.5" width="399" height="99" rx="19.5" fill="#035AA6" stroke="#120136"/>
<circle cx="629" cy="565" r="15" fill="#FCBF1E"/>
<circle cx="669" cy="565" r="15" fill="#FCBF1E"/>
<rect x="944.5" y="550.5" width="29" height="29" rx="1.5" stroke="#120136"/>
<rect x="904.5" y="550.5" width="29" height="29" rx="1.5" stroke="#120136"/>
<rect x="699" y="555" width="190" height="5" rx="2.5" fill="#120136"/>
<rect x="699" y="570" width="190" height="5" rx="2.5" fill="#120136"/>
<rect x="594.5" y="635.5" width="399" height="99" rx="19.5" fill="#035AA6" stroke="#120136"/>
<circle cx="629" cy="685" r="15" fill="#FCBF1E"/>
<circle cx="669" cy="685" r="15" fill="#FCBF1E"/>
<rect x="944.5" y="670.5" width="29" height="29" rx="1.5" stroke="#120136"/>
<rect x="904.5" y="670.5" width="29" height="29" rx="1.5" stroke="#120136"/>
<rect x="699" y="675" width="190" height="5" rx="2.5" fill="#120136"/>
<rect x="699" y="690" width="190" height="5" rx="2.5" fill="#120136"/>
<rect x="594.5" y="755.5" width="399" height="99" rx="19.5" fill="#035AA6" stroke="#120136"/>
<circle cx="629" cy="805" r="15" fill="#FCBF1E"/>
<circle cx="669" cy="805" r="15" fill="#FCBF1E"/>
<rect x="944.5" y="790.5" width="29" height="29" rx="1.5" stroke="#120136"/>
<rect x="904.5" y="790.5" width="29" height="29" rx="1.5" stroke="#120136"/>
<rect x="699" y="795" width="190" height="5" rx="2.5" fill="#120136"/>
<rect x="699" y="810" width="190" height="5" rx="2.5" fill="#120136"/>
<path d="M509.403 307.456C536.02 379.786 496.201 400.015 474.14 417.922C473.34 418.572 472.348 418.968 471.321 419.052C400.515 424.828 376.771 423.954 356.642 378.25C355.332 375.277 357.267 371.899 360.485 371.448L375.657 369.32C381.344 368.522 381.42 360.333 375.748 359.431L353.321 355.861C351.109 355.509 349.402 353.736 349.141 351.512L346.364 327.813L343.662 304.759C343.394 302.47 345.271 300.505 347.57 300.662C352.084 300.969 353.069 294.442 348.666 293.404L347.861 293.214C345.463 292.649 344.247 289.966 345.253 287.716C356.238 263.16 357.204 225.139 354.434 194.302C354.058 190.122 358.631 187.216 362.2 189.425L449.172 243.271C450.904 244.344 451.813 246.361 451.468 248.369L448.041 268.317C447.059 274.031 454.96 276.556 457.474 271.331L462.417 261.059C464.061 257.643 468.76 257.227 470.978 260.302L490.881 287.891C491.83 289.208 492.082 290.904 491.555 292.44L485.276 310.733C483.435 316.098 490.536 319.899 493.979 315.391L500.96 306.251C503.299 303.189 508.072 303.839 509.403 307.456Z" fill="#FCBF1E" stroke="#120136"/>
<path d="M472.957 418.913C452.832 356.848 393.559 232.014 374.603 220.927" stroke="#120136" stroke-width="2"/>
<path d="M524.731 300.467C491.767 388.179 540.007 412.327 566.4 433.839C567.199 434.49 568.19 434.885 569.218 434.969C654.404 441.925 682.538 440.885 706.659 385.237C707.951 382.256 706.011 378.895 702.794 378.444L677.171 374.851C671.484 374.053 671.408 365.864 677.08 364.961L710.833 359.589C713.045 359.237 714.752 357.466 715.012 355.242L718.406 326.285L721.625 298.817C721.945 296.089 719.708 293.748 716.969 293.935C711.591 294.301 710.417 286.524 715.663 285.287L716.622 285.061C719.48 284.387 720.928 281.191 719.729 278.511C706.404 248.721 705.452 202.302 708.975 165.218C709.372 161.04 704.804 158.14 701.236 160.349L595.365 225.896C593.632 226.968 592.724 228.985 593.069 230.993L598.418 262.132C599.4 267.846 591.499 270.371 588.985 265.147L579.434 245.299C577.791 241.883 573.092 241.467 570.874 244.542L545.929 279.121C544.979 280.438 544.728 282.134 545.255 283.669L554.812 311.516C556.653 316.881 549.552 320.681 546.109 316.174L533.2 299.274C530.861 296.211 526.087 296.86 524.731 300.467Z" fill="#FCBF1E" stroke="#120136"/>
<path d="M567.574 434.827C591.552 360.878 662.174 212.142 684.759 198.933" stroke="#120136" stroke-width="2"/>
<path d="M303.727 778.518C288.553 804.664 249.31 820.352 229.427 816.168C195.102 805.71 185.823 758.473 185.475 736.161C187.149 711.479 193.845 711.284 200.648 713.153C217.392 717.755 213.207 711.584 213.207 698.511C210.066 668.182 222.101 658.77 229.95 658.77C244.601 658.77 249.834 652.494 249.834 642.559C243.136 587.339 253.496 578.763 263.438 578.763C277.042 580.332 287.718 617.561 290.123 635.761C293.786 663.476 301.634 651.797 312.1 658.77C324.657 667.136 318.14 693.805 307.914 708.97C298.495 722.936 294.832 738.107 300.588 740.868C321.518 750.908 309.912 767.861 303.727 778.518Z" fill="#FCBF1E"/>
<path d="M229.427 816.168C249.31 820.352 288.553 804.664 303.727 778.518C309.912 767.861 321.518 750.908 300.588 740.868C294.832 738.107 298.495 722.936 307.914 708.97C318.14 693.805 324.657 667.136 312.1 658.77C301.634 651.797 293.786 663.476 290.123 635.761C287.718 617.561 277.042 580.332 263.438 578.763C253.496 578.763 243.136 587.339 249.834 642.559C249.834 652.494 244.601 658.77 229.95 658.77C222.101 658.77 210.066 668.182 213.207 698.511C213.207 711.584 217.392 717.755 200.648 713.153C193.845 711.284 187.149 711.479 185.475 736.161C185.823 758.473 195.102 805.71 229.427 816.168ZM229.427 816.168C235.595 804.319 243.486 786.884 250.647 767.014M266.577 648.311C271.379 666.757 270.273 689.113 266.049 711.796M266.049 711.796C274.772 706.322 292.53 694.642 293.786 691.713M266.049 711.796C264.535 719.931 262.619 728.108 260.432 736.161M260.432 736.161C254.283 725.703 241.671 702.59 240.415 693.805M260.432 736.161C257.545 746.787 254.185 757.197 250.647 767.014M250.647 767.014C260.143 765.096 280.6 760.216 286.46 756.033" stroke="#120136" stroke-width="2"/>
<path d="M229.563 816.84C225.432 822.992 217.395 836.14 218.296 839.514" stroke="#120136" stroke-width="2"/>
<rect x="145.666" y="829.937" width="135.044" height="26.7127" rx="4.5" fill="#120136" stroke="#120136"/>
<path d="M168.976 948.605L159.575 856.39H266.8L257.399 948.605H168.976Z" fill="#035AA6" stroke="#120136"/>
<path d="M164.56 948.345H261.815V950.403C261.815 952.889 259.8 954.903 257.315 954.903H169.06C166.575 954.903 164.56 952.889 164.56 950.403V948.345Z" fill="#120136" stroke="#120136"/>
<path d="M109.383 767.713C127.649 799.205 174.887 818.1 198.82 813.061C240.137 800.465 251.306 743.569 251.726 716.696C249.71 686.968 241.65 686.732 233.461 688.984C213.306 694.526 218.344 687.094 218.344 671.348C222.124 634.818 207.638 623.481 198.19 623.481C180.555 623.481 174.256 615.923 174.256 603.956C182.318 537.445 169.848 527.117 157.88 527.116C141.505 529.006 128.654 573.847 125.759 595.768C121.35 629.149 111.903 615.083 99.3056 623.481C84.1899 633.558 92.035 665.68 104.344 683.945C115.681 700.767 120.091 719.039 113.162 722.365C87.969 734.458 101.939 754.878 109.383 767.713Z" fill="#FCBF1E"/>
<path d="M198.82 813.061C174.887 818.1 127.649 799.205 109.383 767.713C101.939 754.878 87.969 734.458 113.162 722.365C120.091 719.039 115.681 700.767 104.344 683.945C92.035 665.68 84.1899 633.558 99.3056 623.481C111.903 615.083 121.35 629.149 125.759 595.768C128.654 573.847 141.505 529.006 157.88 527.116C169.848 527.117 182.318 537.445 174.256 603.956C174.256 615.923 180.555 623.481 198.19 623.481C207.638 623.481 222.124 634.818 218.344 671.348C218.344 687.094 213.306 694.526 233.461 688.984C241.65 686.732 249.71 686.968 251.726 716.696C251.306 743.569 240.137 800.465 198.82 813.061ZM198.82 813.061C191.395 798.789 181.897 777.789 173.276 753.857M154.102 610.884C148.322 633.101 149.653 660.029 154.737 687.349M154.737 687.349C144.238 680.756 122.862 666.687 121.35 663.16M154.737 687.349C156.56 697.147 158.866 706.996 161.499 716.696M161.499 716.696C168.901 704.099 184.082 676.261 185.593 665.68M161.499 716.696C164.973 729.494 169.018 742.033 173.276 753.857M173.276 753.857C161.846 751.547 137.222 745.669 130.168 740.63" stroke="#120136" stroke-width="2"/>
<path d="M198.702 813.061C203.32 820.409 212.306 836.113 211.298 840.144" stroke="#120136" stroke-width="2"/>
<rect x="360" y="475" width="360" height="20" fill="#120136"/>
<rect x="360" y="595" width="360" height="20" fill="#120136"/>
<rect x="360" y="715" width="360" height="20" fill="#120136"/>
<rect x="360" y="835" width="360" height="20" fill="#120136"/>
<rect x="340.5" y="375.5" width="399" height="99" rx="19.5" fill="#035AA6" stroke="#120136"/>
<circle cx="375" cy="425" r="15" fill="#40BAD5"/>
<circle cx="415" cy="425" r="15" fill="#40BAD5"/>
<rect x="690.5" y="410.5" width="29" height="29" rx="1.5" stroke="#120136"/>
<rect x="650.5" y="410.5" width="29" height="29" rx="1.5" stroke="#120136"/>
<rect x="445" y="415" width="190" height="5" rx="2.5" fill="#120136"/>
<rect x="445" y="430" width="190" height="5" rx="2.5" fill="#120136"/>
<rect x="340.5" y="495.5" width="399" height="99" rx="19.5" fill="#035AA6" stroke="#120136"/>
<circle cx="375" cy="545" r="15" fill="#40BAD5"/>
<circle cx="415" cy="545" r="15" fill="#40BAD5"/>
<rect x="690.5" y="530.5" width="29" height="29" rx="1.5" stroke="#120136"/>
<rect x="650.5" y="530.5" width="29" height="29" rx="1.5" stroke="#120136"/>
<rect x="445" y="535" width="190" height="5" rx="2.5" fill="#120136"/>
<rect x="445" y="550" width="190" height="5" rx="2.5" fill="#120136"/>
<rect x="340.5" y="615.5" width="399" height="99" rx="19.5" fill="#035AA6" stroke="#120136"/>
<circle cx="375" cy="665" r="15" fill="#40BAD5"/>
<circle cx="415" cy="665" r="15" fill="#40BAD5"/>
<rect x="690.5" y="650.5" width="29" height="29" rx="1.5" stroke="#120136"/>
<rect x="650.5" y="650.5" width="29" height="29" rx="1.5" stroke="#120136"/>
<rect x="445" y="655" width="190" height="5" rx="2.5" fill="#120136"/>
<rect x="445" y="670" width="190" height="5" rx="2.5" fill="#120136"/>
<rect x="340.5" y="735.5" width="399" height="99" rx="19.5" fill="#035AA6" stroke="#120136"/>
<circle cx="375" cy="785" r="15" fill="#40BAD5"/>
<circle cx="415" cy="785" r="15" fill="#40BAD5"/>
<rect x="690" y="770" width="30" height="30" rx="2" fill="#FCBF1E"/>
<rect x="650" y="770" width="30" height="30" rx="2" fill="#FCBF1E"/>
<rect x="445" y="775" width="190" height="5" rx="2.5" fill="#120136"/>
<rect x="445" y="790" width="190" height="5" rx="2.5" fill="#120136"/>
<rect x="340.5" y="855.5" width="399" height="99" rx="19.5" fill="#035AA6" stroke="#120136"/>
<circle cx="375" cy="905" r="15" fill="#40BAD5"/>
<circle cx="415" cy="905" r="15" fill="#40BAD5"/>
<rect x="690" y="890" width="30" height="30" rx="2" fill="#FCBF1E"/>
<rect x="650" y="890" width="30" height="30" rx="2" fill="#FCBF1E"/>
<rect x="445" y="895" width="190" height="5" rx="2.5" fill="#120136"/>
<rect x="445" y="910" width="190" height="5" rx="2.5" fill="#120136"/>
<rect x="498.5" y="685.5" width="400.918" height="269" rx="9.5" fill="#40BAD5" stroke="#120136"/>
<path d="M498.5 695C498.5 689.753 502.753 685.5 508 685.5H889.918C895.165 685.5 899.418 689.753 899.418 695V721.486H498.5V695Z" fill="#120136" stroke="#120136"/>
<circle cx="516.493" cy="703.493" r="6.16438" fill="#035AA6"/>
<circle cx="534.986" cy="703.493" r="6.16438" fill="#FCBF1E"/>
<circle cx="553.479" cy="703.493" r="6.16438" fill="#40BAD5"/>
<path d="M645.945 826.781C645.945 838.973 642.33 850.891 635.556 861.028C628.783 871.166 619.155 879.067 607.891 883.732C596.628 888.398 584.233 889.619 572.275 887.24C560.318 884.862 549.334 878.991 540.713 870.37C532.092 861.749 526.221 850.765 523.842 838.807C521.463 826.849 522.684 814.455 527.35 803.191C532.016 791.927 539.917 782.299 550.054 775.526C560.191 768.752 572.109 765.137 584.301 765.137V826.781H645.945Z" fill="#FCBF1E"/>
<path d="M596.63 752.808C604.725 752.808 612.741 754.403 620.22 757.501C627.699 760.598 634.495 765.139 640.219 770.863C645.943 776.587 650.484 783.383 653.582 790.862C656.68 798.341 658.274 806.357 658.274 814.452L596.63 814.452V752.808Z" fill="#035AA6"/>
<path d="M875.26 756.696C875.26 758.843 873.52 760.583 871.373 760.583C870.508 760.583 869.709 760.301 869.064 759.823L835.541 793.348C835.834 793.894 836 794.518 836 795.182C836 797.329 834.259 799.069 832.113 799.069C829.966 799.069 828.225 797.329 828.225 795.182C828.225 794.417 828.446 793.704 828.827 793.103L812.653 776.928C812.008 777.406 811.209 777.688 810.344 777.688C809.479 777.688 808.681 777.405 808.035 776.928L774.369 810.596C774.75 811.197 774.971 811.91 774.971 812.675C774.971 814.822 773.231 816.563 771.084 816.563C768.937 816.563 767.197 814.822 767.197 812.675C767.197 811.911 767.418 811.198 767.799 810.597L756.29 799.087C755.644 799.565 754.845 799.847 753.98 799.847C753.016 799.847 752.133 799.496 751.454 798.914L717.227 833.143C717.608 833.744 717.829 834.457 717.829 835.222C717.829 837.369 716.089 839.11 713.942 839.11C711.795 839.11 710.055 837.369 710.055 835.222C710.055 833.075 711.795 831.335 713.942 831.335C714.706 831.335 715.419 831.555 716.02 831.936L750.424 797.531C750.211 797.05 750.093 796.519 750.093 795.96C750.093 793.813 751.834 792.072 753.98 792.072C756.127 792.072 757.868 793.813 757.868 795.96C757.868 796.623 757.702 797.247 757.409 797.793L769.005 809.39C769.607 809.009 770.32 808.788 771.084 808.788C771.848 808.788 772.561 809.008 773.162 809.389L806.915 775.634C806.623 775.087 806.457 774.463 806.457 773.8C806.457 771.653 808.197 769.913 810.344 769.913C812.491 769.913 814.231 771.653 814.231 773.8C814.231 774.463 814.065 775.088 813.773 775.634L830.034 791.896C830.635 791.515 831.348 791.294 832.113 791.294C832.977 791.294 833.776 791.576 834.422 792.054L867.944 758.529C867.652 757.983 867.486 757.359 867.486 756.696C867.486 754.549 869.226 752.808 871.373 752.808C873.52 752.808 875.26 754.549 875.26 756.696Z" fill="#120136"/>
<rect x="754.438" y="866.233" width="62.8767" height="6.16438" rx="3.08219" fill="#FCBF1E"/>
<rect x="821.014" y="866.233" width="54.2466" height="6.16438" rx="3.08219" fill="#FCBF1E"/>
<rect x="710.055" y="878.562" width="29.589" height="6.16438" rx="3.08219" fill="#FCBF1E"/>
<rect x="742.11" y="878.562" width="75.2055" height="6.16438" rx="3.08219" fill="#FCBF1E"/>
<rect x="821.014" y="878.562" width="46.8493" height="6.16438" rx="3.08219" fill="#FCBF1E"/>
<rect x="710.055" y="890.89" width="30.8219" height="6.16438" rx="3.08219" fill="#FCBF1E"/>
<rect x="743.342" y="890.89" width="78.9041" height="6.16438" rx="3.08219" fill="#FCBF1E"/>
<rect x="825.945" y="890.89" width="49.3151" height="6.16438" rx="3.08219" fill="#FCBF1E"/>
<rect x="710.055" y="903.219" width="157.808" height="6.16438" rx="3.08219" fill="#FCBF1E"/>
<rect x="710.055" y="866.233" width="40.6849" height="6.16438" rx="3.08219" fill="#FCBF1E"/>
<rect x="94" y="955.116" width="900" height="6" fill="#120136"/>
</svg>
